# Blender v3.2.2 OBJ File: 'pipe.blend'
# www.blender.org
mtllib pipe.mtl
o body_Cube.001
v -2.250000 -4.557648 2.250000
v -2.250000 -4.557648 -2.250000
v 2.250000 -4.557648 2.250000
v 2.250000 -4.557648 -2.250000
v -2.250000 -1.251153 2.250000
v -2.250000 -1.251153 -2.250000
v 2.250000 -1.251153 -2.250000
v 2.250000 -1.251153 2.250000
vt 1.000000 0.000000
vt 1.000000 0.656250
vt 0.000000 0.656250
vt 0.000000 0.000000
vt 1.000000 0.000000
vt 1.000000 0.656250
vt 0.000000 0.656250
vt 0.000000 0.000000
vt 1.000000 0.000000
vt 1.000000 0.656250
vt 0.000000 0.656250
vt 0.000000 0.000000
vt 1.000000 0.000000
vt 1.000000 0.656250
vt 0.000000 0.656250
vt 0.000000 0.000000
vn 0.0000 0.0000 1.0000
vn 0.0000 0.0000 -1.0000
vn 1.0000 0.0000 0.0000
vn -1.0000 0.0000 -0.0000
usemtl pipe
s off
f 3/1/1 8/2/1 5/3/1 1/4/1
f 2/5/2 6/6/2 7/7/2 4/8/2
f 4/9/3 7/10/3 8/11/3 3/12/3
f 1/13/4 5/14/4 6/15/4 2/16/4
o inside_Cube.003
v -2.250000 -4.557648 2.250000
v -2.250000 1.000000 2.250000
v -2.250000 -4.557648 -2.250000
v -2.250000 1.000000 -2.250000
v 2.250000 -4.557648 2.250000
v 2.250000 -4.557648 -2.250000
v 2.250000 1.000000 -2.250000
v 2.250000 1.000000 2.250000
vt 0.312500 0.687500
vt 0.312500 0.656250
vt 0.500000 0.656250
vt 0.500000 0.687500
vt 0.000000 0.687500
vt -0.000000 0.656250
vt 0.812500 0.687500
vt 0.812500 0.656250
vt 1.000000 0.656250
vt 1.000000 0.687500
vn 1.0000 0.0000 0.0000
vn 0.0000 0.0000 1.0000
vn -1.0000 0.0000 -0.0000
vn 0.0000 0.0000 -1.0000
usemtl pipe
s off
f 11/17/5 12/18/5 10/19/5 9/20/5
f 14/21/6 15/22/6 12/18/6 11/17/6
f 13/23/7 16/24/7 15/25/7 14/26/7
f 9/20/8 10/19/8 16/24/8 13/23/8
o top_Cube.004
v -2.250000 1.000000 2.250000
v -2.250000 1.000000 -2.250000
v -2.250000 -1.251153 2.250000
v -2.250000 -1.251153 -2.250000
v 2.250000 -1.251153 -2.250000
v 2.250000 -1.251153 2.250000
v -2.250000 1.000000 3.000001
v -2.250000 -1.251153 3.000001
v 2.250000 1.000000 3.000000
v 2.250000 -1.251153 3.000000
v 2.250000 1.000000 -2.250000
v 2.250000 1.000000 2.250000
v -2.250000 1.000000 -3.000000
v 2.250000 1.000000 -3.000000
v -2.250000 -1.251153 -3.000000
v 2.250000 -1.251153 -3.000000
v 3.000000 -1.251153 2.249999
v 3.000000 -1.251153 -2.250001
v 3.000000 1.000000 2.249999
v 3.000000 1.000000 -2.250001
v -3.000000 1.000000 2.250001
v -3.000000 1.000000 -2.250000
v -3.000000 -1.251153 2.250001
v -3.000000 -1.251153 -2.250000
vt 0.125000 1.000000
vt 0.125000 0.687500
vt 0.000000 0.687500
vt 0.000000 1.000000
vt 1.000000 0.687500
vt 1.000000 1.000000
vt 0.000000 1.000000
vt 0.000000 0.687500
vt 1.000000 0.687500
vt 1.000000 1.000000
vt 0.000000 1.000000
vt 0.000000 0.687500
vt -0.000000 1.000000
vt 1.000000 1.000000
vt 1.000000 0.843750
vt -0.000000 0.843750
vt 1.000000 0.843750
vt -0.000000 0.843750
vt -0.000000 1.000000
vt 1.000000 1.000000
vt 0.000000 1.000000
vt -0.000000 0.687500
vt 1.000000 0.687500
vt 1.000000 1.000000
vt 0.000000 1.000000
vt 0.000000 0.687500
vt 1.000000 0.843750
vt -0.000000 0.843750
vt -0.000000 1.000000
vt 1.000000 1.000000
vt 1.000000 0.687500
vt 1.000000 1.000000
vt -0.000000 1.000000
vt -0.000000 0.843750
vt 1.000000 0.843750
vt 0.000000 1.000000
vt -0.000000 0.687500
vt 0.125000 0.687500
vt 0.125000 1.000000
vt 0.125000 1.000000
vt 0.125000 0.687500
vt -0.000000 0.687500
vt 0.000000 1.000000
vt 0.000000 1.000000
vt 0.000000 0.687500
vt 0.125000 0.687500
vt 0.125000 1.000000
vt 1.000000 0.843750
vt -0.000000 0.843750
vt -0.000000 1.000000
vt 1.000000 1.000000
vt 1.000000 1.000000
vt -0.000000 0.843750
vt 1.000000 0.843750
vt -0.000000 1.000000
vt 1.000000 1.000000
vt 1.000000 0.843750
vt -0.000000 0.843750
vt 1.000000 1.000000
vt 1.000000 0.843750
vt -0.000000 0.843750
vt -0.000000 1.000000
vn -0.0000 0.0000 -1.0000
vn 1.0000 0.0000 -0.0000
vn 0.0000 0.0000 1.0000
vn -0.0000 1.0000 0.0000
vn 0.0000 -1.0000 0.0000
vn -1.0000 0.0000 0.0000
usemtl pipe
s off
f 18/27/9 20/28/9 40/29/9 38/30/9
f 34/31/10 36/32/10 35/33/10 33/34/10
f 26/35/11 25/36/11 23/37/11 24/38/11
f 17/39/12 18/40/12 38/41/12 37/42/12
f 20/43/13 19/44/13 39/45/13 40/46/13
f 18/27/14 29/47/14 31/48/14 20/28/14
f 31/49/9 29/50/9 30/51/9 32/52/9
f 21/53/13 20/54/13 31/55/13 32/56/13
f 39/57/14 37/58/14 38/30/14 40/29/14
f 18/40/12 27/59/12 30/60/12 29/61/12
f 36/62/9 34/63/9 21/64/9 27/65/9
f 21/64/10 32/52/10 30/51/10 27/65/10
f 28/66/11 22/67/11 33/34/11 35/33/11
f 26/68/10 22/67/10 28/66/10 25/69/10
f 37/70/11 39/71/11 19/72/11 17/73/11
f 23/37/14 17/73/14 19/72/14 24/38/14
f 23/74/12 25/75/12 28/76/12 17/77/12
f 27/78/12 28/76/12 35/79/12 36/80/12
f 34/81/13 33/82/13 22/83/13 21/84/13
f 24/85/13 19/86/13 22/87/13 26/88/13
